<mxfile host="app.diagrams.net" modified="2024-02-03T11:43:02.535Z" agent="Mozilla/5.0 (Windows NT 10.0; Win64; x64) AppleWebKit/537.36 (KHTML, like Gecko) Chrome/121.0.0.0 Safari/537.36" version="23.1.1" etag="WGGDgJ0i7OmRB6llzAxM" type="github">
  <diagram name="Страница — 1" id="rUkJo-rv5_TGuXbNA9TR">
    <mxGraphModel>
      <root>
        <mxCell id="0" />
        <mxCell id="1" parent="0" />
      </root>
    </mxGraphModel>
  </diagram>
</mxfile>
